<svg xmlns="http://www.w3.org/2000/svg" 
    viewBox="0 0 135.17 325.87">
  <path d="M130.61,3.39c.27-2.08-.28-2.8-.42-3-1-1.16-3.31.25-4.6,1.6a11.53,11.53,0,0,0-2.46,4.7c-2.44,7.88-2.93,9.29-3.78,11.32-1.63,3.91-3,4.27-5.58,7.9-4.79,6.87-3.82,11.5-8.27,23-2.57,6.64-3.46,6.17-6.67,13.58a159.59,159.59,0,0,0-8.71,27.16c-3.19,13.59-12.76,37-12.76,37s.29-17.36-3.19-25.66.29-40.37-20.31-43.76S26.3,55.72,16.43,62.89,3.08,94.21,6.57,105.53,28.33,132,32.39,136.85s1.74,19.62-1.16,21.88S7.15,173.82,2.79,194.57.47,250,.47,250H2.79s.87,20.37,6.68,30.56-7.26,45.27-7.26,45.27H112.75s-1.16-35.46-9.57-40.37c0,0-7.43-33.82-13.64-92.06-1.14-10.7-1.78-18.58,1.13-27C92.88,160,96,156.53,98,147.79a57.63,57.63,0,0,0,1.24-15.27c3.07-13,5.39-23.47,6.88-30.39C113.8,66.27,115.54,63,119.14,55c3.19-7.17,12.76-10.56,15.08-17.35s-.27-7.71-1.14-7.44c0,0,1.45-4.26-1.53-3.78,0,0,1.9-7.12-3.32-6.2s-2.12-4.8-2.12-4.8S130.38,4.69,130.61,3.39Z"/>
</svg>