<svg xmlns="http://www.w3.org/2000/svg" 
    viewBox="0 0 20 20">
  <path d="M15.67,2H4.33A2.33,2.33,0,0,0,2,4.33V15.67A2.33,2.33,0,0,0,4.33,18H15.67A2.33,2.33,0,0,0,18,15.67V4.33A2.33,2.33,0,0,0,15.67,2Zm.1,15H4.23A1.23,1.23,0,0,1,3,15.77v-1l3.63-3.67L8.42,14,17,8.12v7.65A1.23,1.23,0,0,1,15.77,17Zm-7-4.77L6.84,9.07,3,13V4.23A1.23,1.23,0,0,1,4.23,3H15.77A1.23,1.23,0,0,1,17,4.23V6.59Z"/>
  <path d="M11.91,3.64a2.24,2.24,0,1,0,2.23,2.24A2.24,2.24,0,0,0,11.91,3.64Zm0,3.39a1.15,1.15,0,1,1,1.15-1.15A1.15,1.15,0,0,1,11.91,7Z"/>
</svg>